<?xml version="1.0" encoding="UTF-8" standalone="no"?>
<svg width="31px" height="33px" viewBox="0 0 31 33" version="1.1" xmlns="http://www.w3.org/2000/svg" xmlns:xlink="http://www.w3.org/1999/xlink">
    <!-- Generator: Sketch 3.8.3 (29802) - http://www.bohemiancoding.com/sketch -->
    <title>icono arq</title>
    <desc>Created with Sketch.</desc>
    <defs></defs>
    <g id="Welcome" stroke="none" stroke-width="1" fill="none" fill-rule="evenodd">
        <g id="ARQUITECTURA-CONTENIDOS-Copy" transform="translate(-142.000000, -199.000000)" fill="#4E4E4E">
            <g id="TITULO-ARQ-CONTENIDOS" transform="translate(142.000000, 195.000000)">
                <g id="icono-arq" transform="translate(0.000000, 4.000000)">
                    <g id="Capa_1">
                        <path d="M30.0997974,8.81667837 C29.6865946,8.54990986 29.1702035,8.50888245 28.7212755,8.70715441 L21.7532784,11.576682 L21.7532784,9.52858407 L27.7089235,7.13000946 C28.3552133,6.93554991 28.8787614,6.45152315 29.1305242,5.815722 C29.0459671,5.11593844 28.5290617,4.55050755 27.8489297,4.41381538 L18.6839133,1.12809673 C16.2607304,0.240952701 15.8730211,0.153333537 13.8052384,0.89809643 L3.99403993,4.89572078 C3.36132108,5.07865609 2.91636087,5.65507421 2.89183343,6.32356036 C2.86730599,6.99204651 3.26878897,7.6005841 3.88634291,7.83096277 L9.04503013,9.86810833 C8.46596086,10.1729333 8.04267719,10.7149993 7.88190232,11.3576341 L2.35704524,9.16715502 C1.91356292,8.96558621 1.40039145,9.0025696 0.9892931,9.26572658 C0.606353874,9.55034823 0.388221864,10.0104449 0.407729197,10.4923949 L0.407729197,26.2200348 C0.454212291,27.2902681 1.09856529,28.2391528 2.06626329,28.662419 L11.4035948,32.3205191 C11.7652145,32.4981231 12.1919996,32.4694366 12.5274884,32.2449761 C12.8629772,32.0205156 13.0578212,31.6332981 13.0405895,31.2252795 L13.0405895,26.0228917 L16.0453364,24.7962234 L16.0453364,31.3676607 C16.0215545,31.8474682 16.2410201,32.3062448 16.6269003,32.5833766 C16.8292217,32.715195 17.0651308,32.783741 17.3053915,32.7805197 C17.5395201,32.7774262 17.7705015,32.7252263 17.9838827,32.6271861 L29.065906,27.665751 C30.0119532,27.2009834 30.6319224,26.2468478 30.6813613,25.1795572 L30.6813613,10.0542991 C30.7025821,9.5689441 30.4844678,9.10477721 30.0997974,8.81667837 L30.0997974,8.81667837 Z M20.9455507,11.9052539 L19.8685805,12.3323973 C19.0484531,12.5954319 18.1685977,12.5954319 17.3484703,12.3323973 L11.2097402,9.90096552 L20.3962959,6.18810345 C20.4710332,6.17385874 20.5477224,6.17385874 20.6224597,6.18810345 C20.6752273,6.17258646 20.7312376,6.17258646 20.7840052,6.18810345 C20.8882657,6.28111113 20.9406587,6.4204635 20.9240113,6.5604849 L20.9240113,11.9162063 L20.9455507,11.9052539 Z M3.71402768,6.42905615 C3.75774372,6.10518547 3.98613964,5.83850471 4.29559158,5.75000763 L14.10679,1.75238328 C15.9053302,1.11714434 16.0668758,1.12809673 18.4146708,1.99333598 L27.5796871,5.27905462 C27.8729241,5.37078419 28.1344134,5.54553501 28.3335662,5.78286482 C28.106179,6.10142482 27.7858723,6.33902364 27.4181416,6.46191334 L21.7640481,8.7400116 L21.7640481,6.60429448 C21.7879151,6.19384341 21.5944851,5.80166183 21.256718,5.57567705 C20.9189509,5.34969228 20.488243,5.32429122 20.1270534,5.50905493 L10.13277,9.55048886 L4.20943397,7.20667623 C3.87560011,7.08311374 3.66703233,6.74464695 3.70325798,6.38524657 L3.71402768,6.42905615 Z M9.4758182,10.6676332 L10.1543094,10.3938233 L17.1007672,13.1428746 C18.1082488,13.4789643 19.1949597,13.4789643 20.2024413,13.1428746 L20.9563204,12.8362075 L20.9563204,21.0505041 C20.9225219,21.5886694 20.60534,22.0662293 20.1270534,22.2990772 L16.8961428,23.6243171 L16.8961428,16.7790699 C16.8500988,15.7145545 16.2101906,14.7703096 15.2483784,14.3476381 L8.65732086,11.7190632 C8.73755831,11.2430648 9.03817894,10.8354378 9.4650485,10.6238236 L9.4758182,10.6676332 Z M12.2544013,31.2690891 C12.2803327,31.4102341 12.2216473,31.5536039 12.1048916,31.6343445 C11.988136,31.7150852 11.8354556,31.7178823 11.7159162,31.6414706 L2.37858465,27.9943229 C1.72156526,27.6947106 1.28197301,27.0494412 1.23699624,26.3186063 L1.23699624,10.5362045 C1.21865919,10.3268554 1.30333151,10.1218348 1.46315998,9.98858468 C1.65853841,9.88343636 1.89242427,9.88343636 2.08780269,9.98858468 L7.83882351,12.2666829 L7.83882351,26.3733683 C7.80399192,26.8014799 7.99191059,27.2169287 8.3342298,27.4686079 C8.51554718,27.5925561 8.72964484,27.657493 8.94810281,27.6547986 C9.12932025,27.6533676 9.30854099,27.6161715 9.4758182,27.5452746 L12.2544013,26.4500351 L12.2544013,31.3238511 L12.2544013,31.2690891 Z M9.17426655,26.7676546 C9.06031344,26.8594227 8.90107175,26.8656665 8.78050891,26.7830938 C8.65994607,26.700521 8.60577148,26.5481096 8.64655116,26.4062255 L8.64655116,12.57335 L14.9145177,15.0047818 C15.5682751,15.3025788 16.0072609,15.9427462 16.0561061,16.6695459 L16.0561061,23.843365 L9.17426655,26.7676546 Z M29.8844033,25.2233668 C29.8356992,25.9632479 29.4054746,26.6216155 28.7535846,26.9538453 L17.6715614,31.9152804 C17.4861924,32.0145948 17.2645967,32.0145948 17.0792277,31.9152804 C16.9253616,31.787804 16.8444961,31.5904344 16.8638337,31.3895655 L16.8638337,24.4895563 L20.4070656,23.0438401 C21.1882582,22.6853115 21.7046431,21.9102996 21.7425087,21.0395517 L21.7425087,12.4966832 L29.0012878,9.50667928 C29.1971216,9.40341317 29.4300966,9.40341317 29.6259305,9.50667928 C29.7875211,9.64336998 29.8721889,9.85248007 29.8520942,10.0652515 L29.8520942,25.1905096 L29.8844033,25.2233668 Z" id="Shape"></path>
                    </g>
                </g>
            </g>
        </g>
    </g>
</svg>