<?xml version="1.0" encoding="UTF-8" standalone="no"?>
<svg width="45px" height="48px" viewBox="0 0 45 48" version="1.1" xmlns="http://www.w3.org/2000/svg" xmlns:xlink="http://www.w3.org/1999/xlink">
    <!-- Generator: Sketch 3.7 (28169) - http://www.bohemiancoding.com/sketch -->
    <title>Shape</title>
    <desc>Created with Sketch.</desc>
    <defs></defs>
    <g id="Welcome" stroke="none" stroke-width="1" fill="none" fill-rule="evenodd">
        <g id="IT-BOOK---QUIÉNES-SOMOS---MENÚ" transform="translate(-389.000000, -167.000000)" fill="#000000">
            <g id="MENÚ-SUPERIOR-2" transform="translate(-6.000000, 136.000000)">
                <g id="5" transform="translate(395.037633, 31.000000)">
                    <g id="Capa_1">
                        <path d="M43.6932542,12.8242594 C43.0934437,12.4362325 42.3438439,12.3765563 41.6921741,12.6649519 L31.5773396,16.8388102 L31.5773396,13.8597586 L40.2226309,10.3709229 C41.1607935,10.0880726 41.9207827,9.38403368 42.2862448,8.459232 C42.1635007,7.441365 41.4131541,6.61892007 40.4258656,6.4200951 L27.1218097,1.64086798 C23.6042861,0.350476656 23.0414823,0.223030599 20.0398621,1.30632208 L5.7977999,7.12104841 C4.87933705,7.38713613 4.23342707,8.22556249 4.19782272,9.19790598 C4.16221838,10.1702495 4.74501625,11.0553951 5.64146552,11.3904913 L13.1298824,14.3536121 C12.289298,14.7969939 11.674854,15.5854535 11.4414711,16.5201951 L3.42151729,13.3340437 C2.77775263,13.0408527 2.03282629,13.0946467 1.43607063,13.4774205 C0.880191107,13.8914156 0.563547867,14.5606471 0.591864963,15.2616653 L0.591864963,38.1382324 C0.659340423,39.6949355 1.59469155,41.0751314 2.99941445,41.6907912 L16.5536054,47.0116641 C17.0785372,47.2699973 17.6980639,47.2282714 18.1850638,46.9017834 C18.6720637,46.5752955 18.9549017,46.01207 18.929888,45.4185884 L18.929888,37.8514788 L23.2916173,36.067234 L23.2916173,45.6256882 C23.2570952,46.3235902 23.5756744,46.9909015 24.135823,47.3940023 C24.4295154,47.5857382 24.7719641,47.6854414 25.1207296,47.6807559 C25.4605936,47.6762564 25.7958892,47.6003292 26.1056362,47.4577253 L42.1924442,40.2410924 C43.5657386,39.5650668 44.4656938,38.1772331 44.5374599,36.6248105 L44.5374599,14.624435 C44.5682643,13.9184641 44.2516468,13.2433123 43.6932542,12.8242594 L43.6932542,12.8242594 Z M30.4048317,17.3167329 L28.8414879,17.9380325 C27.6509803,18.3206283 26.3737709,18.3206283 25.1832633,17.9380325 L16.2722035,14.4014044 L29.6075264,9.00087774 C29.716016,8.98015816 29.827339,8.98015816 29.9358286,9.00087774 C30.0124268,8.97830757 30.0937319,8.97830757 30.1703301,9.00087774 C30.321676,9.13616164 30.3977304,9.33885599 30.3735648,9.54252348 L30.3735648,17.3326637 L30.4048317,17.3167329 Z M5.39133051,9.3513544 C5.45478927,8.88026978 5.78633173,8.49237048 6.23553617,8.36364746 L20.4775984,2.54892113 C23.0883826,1.62493722 23.3228842,1.64086798 26.7309737,2.89939779 L40.0350297,7.67862491 C40.4606962,7.81204973 40.8402775,8.06623275 41.1293703,8.41143973 C40.7992921,8.87479974 40.3343307,9.22039802 39.8005281,9.39914667 L31.592973,12.7127441 L31.592973,9.60624651 C31.6276188,9.00922678 31.3468332,8.43878084 30.8565262,8.11007572 C30.3662191,7.78137059 29.7409979,7.7444236 29.2166904,8.01317081 L14.7088597,13.8916202 L6.11046867,10.4824382 C5.62587113,10.3027109 5.32311144,9.81039557 5.37569707,9.28763137 L5.39133051,9.3513544 Z M13.75522,15.5165574 L14.7401266,15.1182885 L24.8236943,19.1169085 C26.2861676,19.6057662 27.8636512,19.6057662 29.3261245,19.1169085 L30.4204651,18.6708473 L30.4204651,30.6189151 C30.3714027,31.4017009 29.9109775,32.0963335 29.2166904,32.4350214 L24.5266589,34.362643 L24.5266589,24.4059198 C24.4598208,22.8575338 23.5309218,21.4840867 22.1347429,20.8692918 L12.5670787,17.0459101 C12.6835524,16.3535488 13.1199372,15.7606368 13.7395865,15.4528344 L13.75522,15.5165574 Z M17.788647,45.4823114 C17.8262894,45.6876132 17.7411009,45.8961511 17.5716169,46.0135921 C17.4021329,46.131033 17.1805001,46.1351015 17.0069751,46.0239572 L3.45278416,40.7190151 C2.49904635,40.2832154 1.86092857,39.3446418 1.79563971,38.2816092 L1.79563971,15.3253883 C1.7690214,15.0208806 1.89193284,14.7226688 2.12394191,14.5288504 C2.40755575,14.3759074 2.74706749,14.3759074 3.03068133,14.5288504 L11.3789374,17.8424479 L11.3789374,38.361263 C11.3283754,38.9839707 11.6011605,39.5882599 12.0980755,39.9543387 C12.3612782,40.1346271 12.6720651,40.2290808 12.9891815,40.2251616 C13.2522391,40.2230801 13.5123982,40.1689767 13.75522,40.065854 L17.788647,38.4727783 L17.788647,45.5619652 L17.788647,45.4823114 Z M13.3174837,38.9347703 C13.1520679,39.0682511 12.9209106,39.0773331 12.7459,38.9572273 C12.5708895,38.8371215 12.4922489,38.6154322 12.5514452,38.4090553 L12.5514452,18.2885091 L21.6501063,21.8251372 C22.5991091,22.2582964 23.2363464,23.189449 23.3072507,24.2466123 L23.3072507,34.6812581 L13.3174837,38.9347703 Z M43.3805855,36.6885335 C43.3098859,37.7647242 42.6853664,38.7223498 41.7390744,39.2055931 L25.6522665,46.4222261 C25.3831825,46.5666833 25.0615114,46.5666833 24.7924274,46.4222261 C24.5690733,46.2368058 24.4516878,45.9497227 24.4797586,45.6575498 L24.4797586,35.6211728 L29.6231598,33.5183129 C30.757149,32.9968167 31.50674,31.8695267 31.5617061,30.6029843 L31.5617061,18.1769938 L42.0986435,13.8278971 C42.3829185,13.6776919 42.721108,13.6776919 43.0053829,13.8278971 C43.2399499,14.02672 43.3628549,14.3308801 43.3336851,14.6403657 L43.3336851,36.6407413 L43.3805855,36.6885335 Z" id="Shape"></path>
                    </g>
                </g>
            </g>
        </g>
    </g>
</svg>