<?xml version="1.0" encoding="UTF-8" standalone="no"?>
<svg width="45px" height="44px" viewBox="0 0 45 44" version="1.1" xmlns="http://www.w3.org/2000/svg" xmlns:xlink="http://www.w3.org/1999/xlink">
    <!-- Generator: Sketch 3.7 (28169) - http://www.bohemiancoding.com/sketch -->
    <title>Shape</title>
    <desc>Created with Sketch.</desc>
    <defs></defs>
    <g id="Welcome" stroke="none" stroke-width="1" fill="none" fill-rule="evenodd">
        <g id="IT-BOOK---QUIÉNES-SOMOS---MENÚ" transform="translate(-1007.000000, -169.000000)" fill="#009FDB">
            <g id="MENÚ-SUPERIOR-2" transform="translate(-6.000000, 136.000000)">
                <g id="6" transform="translate(1013.000000, 33.000000)">
                    <g id="Capa_1">
                        <path d="M10.5190511,7.93351702 L10.5190511,6.59533343 C10.5190511,6.45168004 10.5750522,6.31391033 10.6747347,6.21233205 C10.7744172,6.11075377 10.9096157,6.05368769 11.050588,6.05368769 L12.3637968,6.05368769 C12.5047692,6.05368769 12.6399677,6.11075377 12.7396502,6.21233205 C12.8393327,6.31391033 12.8953337,6.45168004 12.8953337,6.59533343 L12.8953337,7.93351702 C12.8953337,8.2326597 12.6573566,8.47516276 12.3637968,8.47516276 L11.050588,8.47516276 C10.7570283,8.47516276 10.5190511,8.2326597 10.5190511,7.93351702 L10.5190511,7.93351702 Z M10.5190511,12.0595831 C10.5190511,12.3587258 10.7570283,12.6012288 11.050588,12.6012288 L12.3637968,12.6012288 C12.6573566,12.6012288 12.8953337,12.3587258 12.8953337,12.0595831 L12.8953337,10.7213995 C12.8953337,10.4222568 12.6573566,10.1797538 12.3637968,10.1797538 L11.050588,10.1797538 C10.7570283,10.1797538 10.5190511,10.4222568 10.5190511,10.7213995 L10.5190511,12.0595831 L10.5190511,12.0595831 Z M10.5190511,16.1856492 C10.5190511,16.4847919 10.7570283,16.7272949 11.050588,16.7272949 L12.3637968,16.7272949 C12.6573566,16.7272949 12.8953337,16.4847919 12.8953337,16.1856492 L12.8953337,14.8474656 C12.8953337,14.7038122 12.8393327,14.5660425 12.7396502,14.4644642 C12.6399677,14.3628859 12.5047692,14.3058198 12.3637968,14.3058198 L11.050588,14.3058198 C10.9096157,14.3058198 10.7744172,14.3628859 10.6747347,14.4644642 C10.5750522,14.5660425 10.5190511,14.7038122 10.5190511,14.8474656 L10.5190511,16.1856492 L10.5190511,16.1856492 Z M15.2090826,8.47516276 L16.5222914,8.47516276 C16.8158511,8.47516276 17.0538283,8.2326597 17.0538283,7.93351702 L17.0538283,6.57940267 C17.0538283,6.43574929 16.9978273,6.29797957 16.8981448,6.19640129 C16.7984623,6.09482301 16.6632638,6.03775693 16.5222914,6.03775693 L15.2090826,6.03775693 C15.0681102,6.03775693 14.9329118,6.09482301 14.8332292,6.19640129 C14.7335467,6.29797957 14.6775457,6.43574929 14.6775457,6.57940267 L14.6775457,7.93351702 C14.6772919,8.08286507 14.7375643,8.22569252 14.8441161,8.32823856 C14.9506678,8.4307846 15.0940423,8.48394818 15.2403495,8.47516276 L15.2090826,8.47516276 Z M14.6775457,16.1856492 C14.6775457,16.4847919 14.9155229,16.7272949 15.2090826,16.7272949 L16.5222914,16.7272949 C16.8158511,16.7272949 17.0538283,16.4847919 17.0538283,16.1856492 L17.0538283,14.8315348 C17.0538283,14.6878814 16.9978273,14.5501117 16.8981448,14.4485335 C16.7984623,14.3469552 16.6632638,14.2898891 16.5222914,14.2898891 L15.2090826,14.2898891 C15.0681102,14.2898891 14.9329118,14.3469552 14.8332292,14.4485335 C14.7335467,14.5501117 14.6775457,14.6878814 14.6775457,14.8315348 L14.6775457,16.1856492 L14.6775457,16.1856492 Z M19.3675772,12.6012288 L20.680786,12.6012288 C20.9743457,12.6012288 21.2123229,12.3587258 21.2123229,12.0595831 L21.2123229,10.7213995 C21.2123229,10.4222568 20.9743457,10.1797538 20.680786,10.1797538 L19.3675772,10.1797538 C19.0740174,10.1797538 18.8360403,10.4222568 18.8360403,10.7213995 L18.8360403,12.0595831 C18.8349807,12.2149908 18.8994808,12.3633753 19.0131383,12.4670029 C19.1267958,12.5706305 19.2786595,12.6195163 19.4301109,12.6012288 L19.3675772,12.6012288 Z M18.8360403,16.1856492 C18.8360403,16.4847919 19.0740174,16.7272949 19.3675772,16.7272949 L20.680786,16.7272949 C20.9743457,16.7272949 21.2123229,16.4847919 21.2123229,16.1856492 L21.2123229,14.8474656 C21.2123229,14.7038122 21.1563218,14.5660425 21.0566393,14.4644642 C20.9569568,14.3628859 20.8217583,14.3058198 20.680786,14.3058198 L19.3675772,14.3058198 C19.2266048,14.3058198 19.0914063,14.3628859 18.9917238,14.4644642 C18.8920413,14.5660425 18.8360403,14.7038122 18.8360403,14.8474656 L18.8360403,16.1856492 L18.8360403,16.1856492 Z M23.5260717,8.47516276 L24.8392806,8.47516276 C25.1328403,8.47516276 25.3708175,8.2326597 25.3708175,7.93351702 L25.3708175,6.59533343 C25.3708175,6.45168004 25.3148164,6.31391033 25.2151339,6.21233205 C25.1154514,6.11075377 24.9802529,6.05368769 24.8392806,6.05368769 L23.5260717,6.05368769 C23.3850994,6.05368769 23.2499009,6.11075377 23.1502184,6.21233205 C23.0505359,6.31391033 22.9945348,6.45168004 22.9945348,6.59533343 L22.9945348,7.93351702 C22.9920382,8.09537653 23.0607167,8.24988983 23.1817571,8.35473084 C23.3027975,8.45957184 23.4635107,8.50374972 23.6198724,8.47516276 L23.5260717,8.47516276 Z M23.0883355,12.0595831 C23.0883355,12.3587258 23.3263127,12.6012288 23.6198724,12.6012288 L24.9330812,12.6012288 C25.2266409,12.6012288 25.4646181,12.3587258 25.4646181,12.0595831 L25.4646181,10.7213995 C25.4646181,10.4222568 25.2266409,10.1797538 24.9330812,10.1797538 L23.6198724,10.1797538 C23.3263127,10.1797538 23.0883355,10.4222568 23.0883355,10.7213995 L23.0883355,12.0595831 L23.0883355,12.0595831 Z M23.0883355,16.1856492 C23.0883355,16.4847919 23.3263127,16.7272949 23.6198724,16.7272949 L24.9330812,16.7272949 C25.2266409,16.7272949 25.4646181,16.4847919 25.4646181,16.1856492 L25.4646181,14.8474656 C25.4646181,14.7038122 25.408617,14.5660425 25.3089345,14.4644642 C25.209252,14.3628859 25.0740535,14.3058198 24.9330812,14.3058198 L23.6198724,14.3058198 C23.4789,14.3058198 23.3437015,14.3628859 23.244019,14.4644642 C23.1443365,14.5660425 23.0883355,14.7038122 23.0883355,14.8474656 L23.0883355,16.1856492 L23.0883355,16.1856492 Z M27.7783669,8.47516276 L29.1853764,8.47516276 C29.4789361,8.47516276 29.7169133,8.2326597 29.7169133,7.93351702 L29.7169133,6.57940267 C29.7169133,6.43574929 29.6609122,6.29797957 29.5612297,6.19640129 C29.4615472,6.09482301 29.3263487,6.03775693 29.1853764,6.03775693 L27.8565341,6.03775693 C27.7155618,6.03775693 27.5803633,6.09482301 27.4806808,6.19640129 C27.3809983,6.29797957 27.3249972,6.43574929 27.3249972,6.57940267 L27.3249972,7.93351702 C27.3239202,8.21494794 27.5345302,8.45033257 27.8096338,8.47516276 L27.7783669,8.47516276 Z M27.2780969,12.0595831 C27.2780969,12.3587258 27.5160741,12.6012288 27.8096338,12.6012288 L29.1853764,12.6012288 C29.4789361,12.6012288 29.7169133,12.3587258 29.7169133,12.0595831 L29.7169133,10.7213995 C29.7169133,10.4222568 29.4789361,10.1797538 29.1853764,10.1797538 L27.8565341,10.1797538 C27.5629744,10.1797538 27.3249972,10.4222568 27.3249972,10.7213995 L27.3249972,12.0595831 L27.2780969,12.0595831 Z M31.9681284,12.6012288 L33.2969707,12.6012288 C33.4458763,12.614671 33.5934536,12.5635963 33.7035263,12.4605247 C33.813599,12.3574532 33.875991,12.2119137 33.8754079,12.0595831 L33.8754079,10.7213995 C33.8754079,10.4222568 33.6374307,10.1797538 33.343871,10.1797538 L31.9993953,10.1797538 C31.7058356,10.1797538 31.4678584,10.4222568 31.4678584,10.7213995 L31.4678584,12.0595831 C31.4678584,12.3587258 31.7058356,12.6012288 31.9993953,12.6012288 L31.9681284,12.6012288 Z M31.4365915,16.1856492 C31.4365915,16.4847919 31.6745687,16.7272949 31.9681284,16.7272949 L33.2969707,16.7272949 C33.437943,16.7272949 33.5731415,16.6702288 33.672824,16.5686506 C33.7725065,16.4670723 33.8285076,16.3293026 33.8285076,16.1856492 L33.8285076,14.8474656 C33.8285076,14.7038122 33.7725065,14.5660425 33.672824,14.4644642 C33.5731415,14.3628859 33.437943,14.3058198 33.2969707,14.3058198 L31.9993953,14.3058198 C31.8584229,14.3058198 31.7232244,14.3628859 31.6235419,14.4644642 C31.5238594,14.5660425 31.4678584,14.7038122 31.4678584,14.8474656 L31.4678584,16.1856492 L31.4365915,16.1856492 Z M14.6775457,20.2798537 C14.6775457,20.5789964 14.9155229,20.8214995 15.2090826,20.8214995 L16.5222914,20.8214995 C16.8158511,20.8214995 17.0538283,20.5789964 17.0538283,20.2798537 L17.0538283,18.9257394 C17.0538283,18.6265967 16.8158511,18.3840937 16.5222914,18.3840937 L15.2090826,18.3840937 C14.9155229,18.3840937 14.6775457,18.6265967 14.6775457,18.9257394 L14.6775457,20.2798537 L14.6775457,20.2798537 Z M23.0570686,20.2798537 C23.0570686,20.5789964 23.2950458,20.8214995 23.5886055,20.8214995 L24.9018143,20.8214995 C25.195374,20.8214995 25.4333512,20.5789964 25.4333512,20.2798537 L25.4333512,18.9257394 C25.4333512,18.6265967 25.195374,18.3840937 24.9018143,18.3840937 L23.5886055,18.3840937 C23.2950458,18.3840937 23.0570686,18.6265967 23.0570686,18.9257394 L23.0570686,20.2798537 L23.0570686,20.2798537 Z M27.24683,20.2798537 C27.24683,20.5789964 27.4848072,20.8214995 27.7783669,20.8214995 L29.1853764,20.8214995 C29.4789361,20.8214995 29.7169133,20.5789964 29.7169133,20.2798537 L29.7169133,18.9257394 C29.6925465,18.6454038 29.4615549,18.4307884 29.1853764,18.4318859 L27.8565341,18.4318859 C27.5629744,18.4318859 27.3249972,18.674389 27.3249972,18.9735317 L27.3249972,20.327646 L27.24683,20.2798537 Z M35.4387517,3.17022066 L8.86190667,3.17022066 C8.21434845,3.17022066 7.6893988,3.70515387 7.6893988,4.36502744 L7.6893988,15.9307571 C7.6893988,16.2606939 7.95187362,16.5281605 8.27565273,16.5281605 C8.59943184,16.5281605 8.86190667,16.2606939 8.86190667,15.9307571 L8.86190667,4.36502744 L35.4387517,4.36502744 L35.4387517,22.4782982 L11.050588,22.4782982 C10.7633946,22.5262477 10.5525708,22.7791442 10.5525708,23.0757016 C10.5525708,23.372259 10.7633946,23.6251556 11.050588,23.673105 L35.4387517,23.673105 C36.0863099,23.673105 36.6112596,23.1381718 36.6112596,22.4782982 L36.6112596,4.36502744 C36.6112596,3.70515387 36.0863099,3.17022066 35.4387517,3.17022066 L35.4387517,3.17022066 Z M44.3810784,42.4395368 C44.3811899,42.767749 44.1246163,43.0362685 43.8026412,43.0449056 L0.498017201,43.0449056 C0.21082379,42.9969562 -4.61852778e-14,42.7440596 -4.61852778e-14,42.4475022 C-4.61852778e-14,42.1509448 0.21082379,41.8980483 0.498017201,41.8500988 L4.25004238,41.8500988 L4.25004238,2.88346703 C4.25858625,1.29459243 5.52047358,0.0087063579 7.0796947,1.81188398e-13 L37.2053302,1.81188398e-13 C38.7645513,0.0087063579 40.0264387,1.29459243 40.0349825,2.88346703 L40.0349825,41.8341681 L43.7870077,41.8341681 C44.1090944,41.8340544 44.3726024,42.0955076 44.3810784,42.4236061 L44.3810784,42.4395368 Z M5.42255025,41.8500988 L38.8781081,41.8500988 L38.8781081,2.88346703 C38.8696268,1.95444915 38.1326431,1.20344937 37.2209637,1.19480678 L7.09532814,1.19480678 C6.18364871,1.20344937 5.44666498,1.95444915 5.43818369,2.88346703 L5.43818369,41.8341681 L5.42255025,41.8500988 Z" id="Shape"></path>
                    </g>
                </g>
            </g>
        </g>
    </g>
</svg>