<?xml version="1.0" encoding="UTF-8" standalone="no"?>
<svg width="27px" height="27px" viewBox="0 0 27 27" version="1.1" xmlns="http://www.w3.org/2000/svg" xmlns:xlink="http://www.w3.org/1999/xlink">
    <!-- Generator: Sketch 3.7 (28169) - http://www.bohemiancoding.com/sketch -->
    <title>Icono Lupa Copy</title>
    <desc>Created with Sketch.</desc>
    <defs></defs>
    <g id="Welcome" stroke="none" stroke-width="1" fill="none" fill-rule="evenodd">
        <g id="IT-BOOK---VISION-GENERAL" transform="translate(-1367.000000, -27.000000)" fill="#000000">
            <g id="HEADER-PRINCIPAL">
                <g id="Campo-búsqueda" transform="translate(1060.000000, 20.000000)">
                    <g id="Icono-Lupa-Copy" transform="translate(307.000000, 7.000000)">
                        <path d="M21.9150109,15.4569254 C23.2931948,14.0797871 24.0513006,12.2488311 24.0513006,10.3007608 C24.0513006,8.35269046 23.2931948,6.52278009 21.9150109,5.14668749 C20.5378726,3.76954922 18.7069166,3.01039783 16.7588463,3.01039783 C14.8118217,3.01039783 12.9819113,3.76954922 11.604773,5.14668749 C11.4521062,5.29935429 11.4521062,5.5482221 11.604773,5.70088891 C11.7584855,5.85460138 12.0063076,5.85460138 12.1600201,5.70088891 C13.3886742,4.4722348 15.0219999,3.79464513 16.7588463,3.79464513 C18.4967383,3.79464513 20.1311097,4.4722348 21.3608095,5.70088891 C22.5905092,6.92954302 23.2670532,8.56286874 23.2670532,10.3007608 C23.2670532,12.0396984 22.5905092,13.6730242 21.3608095,14.9027239 C20.1321554,16.131378 18.497784,16.807922 16.7588463,16.807922 C16.542394,16.807922 16.3667226,16.9835934 16.3667226,17.2000457 C16.3667226,17.416498 16.542394,17.5921694 16.7588463,17.5921694 C18.7069166,17.5921694 20.5389183,16.833018 21.9150109,15.4569254 M16.7588463,0.903386744 C14.2503006,0.903386744 11.890239,1.88108172 10.1157488,3.65557195 C8.34021291,5.43006218 7.36251794,7.79012373 7.36251794,10.3007608 C7.36251794,12.3094795 7.99305278,14.2293169 9.1872,15.852186 C9.30117728,16.0079898 9.28549233,16.2244421 9.14851047,16.3614239 L1.09167651,24.4182579 C0.893000525,24.6169339 0.784251566,24.880441 0.784251566,25.1617243 C0.783205903,25.4440534 0.893000525,25.7086061 1.09167651,25.9083278 C1.49007414,26.3035884 2.18334875,26.3067254 2.58279205,25.9072821 L10.6291694,17.8598591 C10.7671969,17.7218316 10.9857405,17.708238 11.1415443,17.8232609 C12.7800983,19.0508693 14.7218946,19.7002261 16.7588463,19.7002261 C19.2715747,19.7002261 21.6316362,18.7225311 23.4061264,16.9469952 C25.1816623,15.1714593 26.1593573,12.8103521 26.1593573,10.3007608 C26.1593573,7.79221505 25.1816623,5.4321535 23.4061264,3.65557195 C21.6305905,1.88108172 19.2694833,0.903386744 16.7588463,0.903386744 M1.83827994,27 C1.34786396,27 0.885680884,26.8096893 0.538520744,26.4635748 C0.190314942,26.115369 -0.00104140014,25.653186 4.26292726e-06,25.1617243 C4.26292726e-06,24.6713083 0.191360605,24.2091253 0.537475081,23.8630108 L8.35903485,16.041451 C7.19312053,14.3422485 6.57827064,12.3648997 6.57827064,10.3007608 C6.57827064,7.58099111 7.63752733,5.02329924 9.56050172,3.10137052 C11.4845218,1.17735047 14.041168,0.119139441 16.7588463,0.119139441 C19.4786159,0.119139441 22.0373535,1.17735047 23.9603279,3.10137052 C25.8833023,5.02539057 26.9436046,7.58308244 26.9436046,10.3007608 C26.9436046,13.0194847 25.8833023,15.5771766 23.9603279,17.5022423 C22.0394448,19.4252167 19.4807073,20.4844734 16.7588463,20.4844734 C14.6643832,20.4844734 12.662984,19.8518472 10.947051,18.651426 L3.13699348,26.4625292 C2.78878767,26.8096893 2.32765026,27 1.83827994,27" id="Fill-1"></path>
                    </g>
                </g>
            </g>
        </g>
    </g>
</svg>