<?xml version="1.0" encoding="UTF-8" standalone="no"?>
<svg width="85px" height="35px" viewBox="0 0 85 35" version="1.1" xmlns="http://www.w3.org/2000/svg" xmlns:xlink="http://www.w3.org/1999/xlink">
    <!-- Generator: Sketch 3.7 (28169) - http://www.bohemiancoding.com/sketch -->
    <title>Logo AT&amp;T</title>
    <desc>Created with Sketch.</desc>
    <defs></defs>
    <g id="Welcome" stroke="none" stroke-width="1" fill="none" fill-rule="evenodd">
        <g id="IT-BOOK---VISION-GENERAL" transform="translate(-41.000000, -23.000000)" fill="#FFFFFF">
            <g id="HEADER-PRINCIPAL">
                <g id="Logo-AT&amp;T" transform="translate(41.000000, 23.000000)">
                    <path d="M59.2547983,24.1983681 C59.4745245,24.1983681 59.6263977,24.0474306 59.6263977,23.8296528 L59.6263977,13.0285069 L63.3220605,13.0285069 C63.5417867,13.0285069 63.693415,12.8778125 63.693415,12.6600347 L63.693415,11.1701042 C63.693415,10.9520833 63.5417867,10.8013889 63.3220605,10.8013889 L53.4828818,10.8013889 C53.2631556,10.8013889 53.1115274,10.9520833 53.1115274,11.1701042 L53.1115274,12.6600347 C53.1115274,12.8778125 53.2631556,13.0285069 53.4828818,13.0285069 L57.1787896,13.0285069 L57.1787896,23.8296528 C57.1787896,24.0474306 57.3306628,24.1983681 57.5498991,24.1983681 L59.2547983,24.1983681 L59.2547983,24.1983681 Z M76.0972911,23.7295139 C76.3167723,23.9640625 76.1818012,24.1983681 75.9111239,24.1983681 L73.7682421,24.1983681 C73.4813977,24.1983681 73.3290346,24.1312847 73.1431124,23.9135069 L71.8610086,22.5074306 C71.0004755,23.6456597 69.8016571,24.5 67.8106484,24.5 C65.3463833,24.5 63.4053458,23.0265972 63.4053458,20.4978472 C63.4053458,18.5546181 64.4520461,17.5167708 66.0381412,16.6456597 C65.2623631,15.7580208 64.9076657,14.8203125 64.9076657,14.0002431 C64.9076657,11.9233333 66.3756916,10.5 68.5869164,10.5 C70.8483573,10.5 72.2323631,11.8231944 72.2323631,13.7827083 C72.2323631,15.4566319 71.0171326,16.3945833 69.7342939,17.0982292 L71.6246254,19.1245833 L72.6879827,17.2819792 C72.8229539,17.0644444 72.975072,16.9805903 73.2447695,16.9805903 L74.8815706,16.9805903 C75.1517579,16.9805903 75.3038761,17.1650694 75.1353458,17.4496875 L73.2447695,20.6643403 L76.0972911,23.7295139 L76.0972911,23.7295139 Z M68.6207205,12.5764236 C67.7430403,12.5764236 67.2372046,13.1291319 67.2372046,13.8660764 C67.2372046,14.4355556 67.5399712,14.9377083 68.232464,15.6744097 C69.4305476,14.9880208 69.9371182,14.5697222 69.9371182,13.8325347 C69.9371182,13.1456597 69.4986455,12.5764236 68.6207205,12.5764236 L68.6207205,12.5764236 Z M67.8611095,22.3895486 C68.940634,22.3895486 69.6669308,21.870625 70.2577666,20.9829861 L67.523804,18.0689931 C66.4773487,18.6552431 65.8020029,19.2414931 65.8020029,20.4139931 C65.8020029,21.5697222 66.7468012,22.3895486 67.8611095,22.3895486 L67.8611095,22.3895486 Z M54.7520029,23.7628125 C54.836268,23.9805903 54.7010519,24.1983681 54.4651585,24.1983681 L52.7097983,24.1983681 C52.4567579,24.1983681 52.3046398,24.0814583 52.2203746,23.8461806 L51.2246254,21 L45.7738473,21 L44.7771182,23.8461806 C44.692853,24.0814583 44.5412248,24.1983681 44.2879395,24.1983681 L42.6342363,24.1983681 C42.414755,24.1983681 42.2628818,23.9805903 42.3473919,23.7628125 L46.9212248,11.1360764 C47.0054899,10.9015278 47.1573631,10.8013889 47.4099135,10.8013889 L49.6720893,10.8013889 C49.9251297,10.8013889 50.0936599,10.9015278 50.17817,11.1360764 L54.7520029,23.7628125 L54.7520029,23.7628125 Z M50.4481124,18.8061806 L48.5075648,13.2800694 L46.5493804,18.8061806 L50.4481124,18.8061806 L50.4481124,18.8061806 Z M78.7638905,24.1983681 C78.5446542,24.1983681 78.392781,24.0474306 78.392781,23.8296528 L78.392781,13.0285069 L74.6961383,13.0285069 C74.4764121,13.0285069 74.3247839,12.8778125 74.3247839,12.6600347 L74.3247839,11.1701042 C74.3247839,10.9520833 74.4764121,10.8013889 74.6961383,10.8013889 L84.5358069,10.8013889 C84.7547983,10.8013889 84.9069164,10.9520833 84.9069164,11.1701042 L84.9069164,12.6600347 C84.9069164,12.8778125 84.7547983,13.0285069 84.5358069,13.0285069 L80.8394092,13.0285069 L80.8394092,23.8296528 C80.8394092,24.0474306 80.687781,24.1983681 80.4685447,24.1983681 L78.7638905,24.1983681 L78.7638905,24.1983681 Z" id="Fill-1"></path>
                    <path d="M26.6586455,2.46725694 C24.0148271,0.894444444 20.9460086,0 17.6368876,0 C14.3042507,0 11.1430836,0.926527778 8.49044669,2.54065972 C7.695317,3.02701389 7.24704611,3.41663194 7.24704611,3.91659722 C7.24704611,5.39315972 10.7227378,6.97982639 16.8880548,6.97982639 C22.9889481,6.97982639 27.7217579,5.24173611 27.7217579,3.5678125 C27.7217579,3.16895833 27.3704899,2.88895833 26.6586455,2.46725694 M29.2838473,4.41170139 C29.3575793,4.52642361 29.3948127,4.65013889 29.3948127,4.81541667 C29.3948127,6.75986111 23.4002305,10.1990972 13.8562248,10.1990972 C6.84482709,10.1990972 5.53210375,7.61736111 5.53210375,5.97527778 C5.53210375,5.38829861 5.75868876,4.78770833 6.25791066,4.17763889 C6.28559078,4.1409375 6.26256484,4.12756944 6.23023055,4.15479167 C5.31972622,4.92090278 4.48319885,5.78277778 3.74832853,6.71392361 C3.39706052,7.15434028 3.1795389,7.54395833 3.1795389,7.77802083 C3.1795389,11.1805556 11.7762968,13.6475694 19.8135735,13.6475694 C28.3777522,13.6475694 32.2000576,10.8735764 32.2000576,8.43378472 C32.2000576,7.5621875 31.858098,7.05322917 30.9845821,6.06739583 C30.4160375,5.42524306 29.8798271,4.90267361 29.3115274,4.38885417 C29.2838473,4.36576389 29.2652305,4.38423611 29.2838473,4.41170139 M1.70073487,9.99274306 C1.18338617,11.0109028 0.609942363,12.7307639 0.438962536,13.6203472 C0.365230548,14.0009722 0.397319885,14.1844792 0.531556196,14.4683681 C1.61279539,16.7479861 7.08512968,20.3935764 19.8508069,20.3935764 C27.6384726,20.3935764 33.68817,18.4950694 34.6682421,15.0283681 C34.8485303,14.3905903 34.8575937,13.7168403 34.6263545,12.8087847 C34.3679251,11.7952431 33.8826657,10.6120486 33.4711383,9.78177083 C33.4571758,9.75454861 33.4341499,9.75892361 33.438804,9.79100694 C33.5914121,14.3354167 20.8213256,17.2659375 14.3784726,17.2659375 C7.39965418,17.2659375 1.57605187,14.5055556 1.57605187,11.0203819 C1.57605187,10.6854514 1.64537464,10.3505208 1.73331412,10.0019792 C1.74237752,9.96989583 1.71469741,9.96527778 1.70073487,9.99274306 M14.0918732,24.5167708 C5.0654611,24.5167708 0.808847262,20.3435069 0.0369884726,17.4953819 C0.0276801153,17.4540625 0,17.4635417 0,17.5 C0,18.4583681 0.0970028818,19.6967361 0.26332853,20.5175347 C0.341959654,20.9163889 0.670201729,21.5449306 1.15080692,22.0448958 C3.33704611,24.3057986 8.78635447,27.4745139 18.223804,27.4745139 C31.08183,27.4745139 34.0210663,23.2234722 34.6217003,21.8246875 C35.0515994,20.8247569 35.2737752,19.0178819 35.2737752,17.5 C35.2737752,17.1329861 35.2642219,16.8396181 35.2502594,16.550625 C35.2502594,16.5049306 35.2228242,16.5003125 35.2135159,16.54625 C34.5709942,19.9672569 23.5851729,24.5167708 14.0918732,24.5167708 M18.8339914,32.2162847 C23.1738905,32.2162847 27.9434438,31.0423264 30.7949856,28.7170139 C31.5763977,28.0845833 32.3203314,27.2406944 32.985879,26.1078125 C33.3694813,25.4564236 33.7437752,24.6818056 34.0487464,23.9203125 C34.0627089,23.8840972 34.039683,23.8653819 34.0120029,23.9067014 C31.3588761,27.7817361 23.6775216,30.1984375 15.7465562,30.1984375 C10.1402305,30.1984375 4.10865994,28.4192708 1.7470317,25.0208681 C1.72400576,24.9890278 1.70073487,25.0023958 1.71469741,25.0395833 C3.91465418,29.6802431 10.5885014,32.2162847 18.8339914,32.2162847 M6.82180115,31.3220833 C9.81223343,33.6196875 13.5652161,35 17.6368876,35 C22.0921614,35 26.1547695,33.3581597 29.2559222,30.6617014 C29.2929107,30.629375 29.2742939,30.6065278 29.2375504,30.629375 C27.8464409,31.5512847 23.8808357,33.5645139 17.6368876,33.5645139 C12.2108501,33.5645139 8.78145533,32.3628472 6.84482709,31.29 C6.80783862,31.2715278 6.79412104,31.2992361 6.82180115,31.3220833" id="Fill-2"></path>
                </g>
            </g>
        </g>
    </g>
</svg>