<?xml version="1.0" encoding="UTF-8" standalone="no"?>
<svg width="49px" height="38px" viewBox="0 0 49 38" version="1.1" xmlns="http://www.w3.org/2000/svg" xmlns:xlink="http://www.w3.org/1999/xlink">
    <!-- Generator: Sketch 3.7 (28169) - http://www.bohemiancoding.com/sketch -->
    <title>Shape</title>
    <desc>Created with Sketch.</desc>
    <defs></defs>
    <g id="Welcome" stroke="none" stroke-width="1" fill="none" fill-rule="evenodd">
        <g id="IT-BOOK---QUIÉNES-SOMOS---MENÚ" transform="translate(-593.000000, -172.000000)" fill="#009FDB">
            <g id="MENÚ-SUPERIOR-2" transform="translate(-6.000000, 136.000000)">
                <g id="2" transform="translate(599.125942, 36.000000)">
                    <g id="Capa_1">
                        <path d="M35.5035383,12.6649519 C35.2308745,12.4884135 34.8697498,12.5662581 34.6905995,12.8401902 L25.3105365,27.3053176 C23.5826518,26.5737518 21.592965,27.3147983 20.7352599,29.0093509 C19.8775547,30.7039036 20.438524,32.7855484 22.0252066,33.7960848 C23.6118891,34.8066212 25.693927,34.4082716 26.8128444,32.8800815 C27.9317619,31.3518913 27.7135541,29.2046671 26.3110766,27.9425479 L35.6911395,13.509282 C35.77795,13.3724749 35.8069841,13.205787 35.7716795,13.0468929 C35.7363749,12.8879988 35.639712,12.7503118 35.5035383,12.6649519 L35.5035383,12.6649519 Z M24.0754949,33.0244594 C22.7803785,33.0244594 21.7304792,31.954593 21.7304792,30.6348458 C21.7304792,29.3150987 22.7803785,28.2452323 24.0754949,28.2452323 C25.3706113,28.2452323 26.4205106,29.3150987 26.4205106,30.6348458 C26.4205106,31.954593 25.3706113,33.0244594 24.0754949,33.0244594 L24.0754949,33.0244594 Z M48.1509898,25.1865269 C48.1497729,29.4871656 47.0391656,33.7119207 44.9305015,37.4372791 C44.7707705,37.7232243 44.4138047,37.8230785 44.1331962,37.6603097 C43.8525876,37.4975409 43.754597,37.1337863 43.914328,36.8478411 C45.8084583,33.4870138 46.8508273,29.6981609 46.9472151,25.8237572 L43.9299615,25.8237572 C43.6976656,25.862541 43.4648072,25.757901 43.336253,25.5569611 C43.2076988,25.3560213 43.2076988,25.0966863 43.336253,24.8957465 C43.4648072,24.6948067 43.6976656,24.5901666 43.9299615,24.6289504 L46.9784819,24.6289504 C46.8974184,20.94061 45.9541542,17.3251746 44.2269968,14.0827892 L41.6005792,15.675865 C41.3199706,15.8386337 40.9630049,15.7387795 40.8032739,15.4528343 C40.6435429,15.1668891 40.7415335,14.8031346 41.022142,14.6403657 L43.6485596,13.04729 C41.7575086,9.89722357 39.1654273,7.24493091 36.0819755,5.3049421 L34.5186317,7.99724005 C34.4153038,8.1822142 34.2229841,8.29696424 34.0141176,8.29826493 C33.8052511,8.29956562 33.6115695,8.18721936 33.5060308,8.0035459 C33.4004922,7.81987244 33.3991303,7.59277616 33.5024582,7.40780204 L35.065802,4.69957334 C31.8742516,2.91498409 28.3089807,1.93705845 24.6695656,1.84796782 L24.6695656,5.03411923 C24.6695656,5.36405602 24.4070907,5.63152262 24.0833116,5.63152262 C23.7595325,5.63152262 23.4970577,5.36405602 23.4970577,5.03411923 L23.4970577,1.84796782 C19.881577,1.93799406 16.3391852,2.90460192 13.163355,4.66771182 L14.7266988,7.40780204 C14.8328193,7.59277615 14.8340379,7.82139061 14.7298956,8.00752854 C14.6257533,8.19366647 14.4320717,8.30904911 14.2218089,8.31021292 C14.011546,8.31137674 13.8166458,8.19814492 13.7105253,8.01317081 L12.1471815,5.27308059 C9.0519709,7.20865681 6.44878272,9.86135277 4.54933053,13.0154285 L7.23828191,14.6085042 C7.41980385,14.7137972 7.53241229,14.9097744 7.5336887,15.1226132 C7.53496512,15.335452 7.4247156,15.532817 7.24447007,15.6403628 C7.06422455,15.7479086 6.84136661,15.7492964 6.6598447,15.6440034 L3.97089332,14.0509277 C2.23348308,17.3014471 1.28468638,20.9284666 1.20377475,24.6289504 L4.2522952,24.6289504 C4.53948862,24.6768999 4.75031241,24.9297965 4.75031241,25.2263538 C4.75031241,25.5229112 4.53948862,25.7758078 4.2522952,25.8237572 L1.21940818,25.8237572 C1.31463559,29.6790391 2.34591015,33.4501926 4.22102833,36.8000488 C4.31661674,37.0762624 4.20444585,37.3825938 3.9546598,37.5274838 C3.70487374,37.6723738 3.38912215,37.6142617 3.20485484,37.3894868 C-1.83888119,28.451908 -0.860815261,17.2545096 5.6527098,9.3651925 C12.1662349,1.47587545 22.8252973,-1.42185799 32.3296833,2.11288877 C41.8340693,5.64763553 48.155637,14.8605825 48.1509898,25.1705962 L48.1509898,25.1865269 Z" id="Shape"></path>
                    </g>
                </g>
            </g>
        </g>
    </g>
</svg>