<?xml version="1.0" encoding="UTF-8" standalone="no"?>
<svg width="38px" height="46px" viewBox="0 0 38 46" version="1.1" xmlns="http://www.w3.org/2000/svg" xmlns:xlink="http://www.w3.org/1999/xlink">
    <!-- Generator: Sketch 3.7 (28169) - http://www.bohemiancoding.com/sketch -->
    <title>Shape</title>
    <desc>Created with Sketch.</desc>
    <defs></defs>
    <g id="Welcome" stroke="none" stroke-width="1" fill="none" fill-rule="evenodd">
        <g id="IT-BOOK---QUIÉNES-SOMOS---MENÚ" transform="translate(-1216.000000, -168.000000)" fill="#000000">
            <g id="MENÚ-SUPERIOR-2" transform="translate(-6.000000, 136.000000)">
                <g id="3" transform="translate(1222.861014, 32.000000)">
                    <g id="Capa_1">
                        <path d="M35.3784708,7.58304036 L29.5159314,1.60900646 C28.8774988,1.0110609 28.052787,0.661365781 27.1865491,0.621299526 L2.82965232,0.621299526 C1.29012553,0.603551167 0.0257052569,1.85642534 0,3.42511277 L0,34.5060198 C0,34.8359566 0.262474827,35.1034232 0.586253934,35.1034232 C0.910033042,35.1034232 1.17250787,34.8359566 1.17250787,34.5060198 L1.17250787,3.44104353 C1.17173061,3.00143888 1.3492524,2.58104627 1.66305069,2.27938009 C1.97684898,1.97771392 2.39902867,1.82159078 2.82965232,1.84796782 L27.1865491,1.84796782 C27.3679555,1.85976704 27.5468591,1.89730064 27.718086,1.95948312 L27.718086,8.84157017 C27.718086,9.17590611 27.9840605,9.44693894 28.3121567,9.44693894 L35.065802,9.44693894 C35.126824,9.62142227 35.1636571,9.80372833 35.1752361,9.98858468 L35.1752361,43.1564209 C35.1760133,43.5960255 34.9984915,44.0164182 34.6846932,44.3180843 C34.370895,44.6197505 33.9487153,44.7758736 33.5180916,44.7494966 L2.82965232,44.7494966 C2.59735643,44.7107128 2.36449808,44.8153529 2.23594387,45.0162927 C2.10738967,45.2172325 2.10738967,45.4765675 2.23594387,45.6775073 C2.36449808,45.8784471 2.59735643,45.9830872 2.82965232,45.9443034 L33.533725,45.9443034 C35.0732518,45.9620517 36.3376721,44.7091776 36.3633774,43.1404901 L36.3633774,9.95672317 C36.3210968,9.07165236 35.9721027,8.23055591 35.3784708,7.58304036 L35.3784708,7.58304036 Z M28.9062273,2.64450567 L34.3466638,8.18840913 L28.9062273,8.18840913 L28.9062273,2.64450567 L28.9062273,2.64450567 Z M6.15957467,31.3198684 C6.14188956,31.8770876 6.56669687,32.3454564 7.1132144,32.3712984 L10.2399021,32.3712984 C10.7864196,32.3454564 11.2112269,31.8770876 11.1935418,31.3198684 L11.1935418,28.2452323 C11.2112269,27.6880131 10.7864196,27.2196443 10.2399021,27.1938023 L7.1132144,27.1938023 C6.56669687,27.2196443 6.14188956,27.6880131 6.15957467,28.2452323 L6.15957467,31.3198684 L6.15957467,31.3198684 Z M7.33208254,28.3886091 L10.0054005,28.3886091 L10.0054005,31.1764916 L7.33208254,31.1764916 L7.33208254,28.3886091 L7.33208254,28.3886091 Z M13.8355929,29.774585 C13.8440688,29.4464865 14.1075769,29.1850333 14.4296635,29.1851469 L29.4533977,29.1851469 C29.7405911,29.2330964 29.9514149,29.485993 29.9514149,29.7825503 C29.9514149,30.0791077 29.7405911,30.3320043 29.4533977,30.3799537 L14.4140301,30.3799537 C14.2507317,30.3760966 14.0961962,30.3038935 13.9867627,30.1803231 C13.8773291,30.0567527 13.8226535,29.8927184 13.8355929,29.7267927 L13.8355929,29.774585 Z M6.15957467,24.2466123 C6.14188956,24.8038314 6.56669687,25.2722003 7.1132144,25.2980422 L10.2399021,25.2980422 C10.7864196,25.2722003 11.2112269,24.8038314 11.1935418,24.2466123 L11.1935418,21.1719761 C11.2112269,20.614757 10.7864196,20.1463881 10.2399021,20.1205462 L7.1132144,20.1205462 C6.56669687,20.1463881 6.14188956,20.614757 6.15957467,21.1719761 L6.15957467,24.2466123 L6.15957467,24.2466123 Z M7.33208254,21.315353 L10.0054005,21.315353 L10.0054005,24.1032354 L7.33208254,24.1032354 L7.33208254,21.315353 L7.33208254,21.315353 Z M13.8355929,22.7013288 C13.8440688,22.3732303 14.1075769,22.1117771 14.4296635,22.1118908 L29.4533977,22.1118908 C29.7405911,22.1598403 29.9514149,22.4127368 29.9514149,22.7092942 C29.9514149,23.0058516 29.7405911,23.2587481 29.4533977,23.3066976 L14.4140301,23.3066976 C14.2564546,23.3025276 14.1069653,23.2347129 13.9984758,23.1181842 C13.8899862,23.0016556 13.8313916,22.8459674 13.8355929,22.6853981 L13.8355929,22.7013288 Z M13.8355929,15.6440034 C13.8440688,15.315905 14.1075769,15.0544518 14.4296635,15.0545654 L29.4533977,15.0545654 C29.7405911,15.1025149 29.9514149,15.3554115 29.9514149,15.6519688 C29.9514149,15.9485262 29.7405911,16.2014228 29.4533977,16.2493722 L14.4140301,16.2493722 C14.2564546,16.2452023 14.1069653,16.1773875 13.9984758,16.0608588 C13.8899862,15.9443302 13.8313916,15.788642 13.8355929,15.6280727 L13.8355929,15.6440034 Z M7.37898285,17.2370791 L6.36280937,15.9466878 C6.20588219,15.6860668 6.26431302,15.3471141 6.49901043,15.156596 C6.73370784,14.966078 7.07097888,14.9838157 7.28518223,15.1979422 L8.16065477,16.3449568 L10.9434068,12.8720517 C11.1612831,12.6845939 11.479133,12.6813265 11.7006762,12.8642671 C11.9222193,13.0472077 11.9849566,13.3647473 11.8501462,13.6207973 L8.97359356,17.2211484 C8.77546154,17.4720918 8.47672337,17.6184473 8.16065477,17.6194173 L8.16065477,17.6194173 C7.8500814,17.6136993 7.55801829,17.4678083 7.36334942,17.2211484 L7.37898285,17.2370791 Z" id="Shape"></path>
                    </g>
                </g>
            </g>
        </g>
    </g>
</svg>