<?xml version="1.0" encoding="UTF-8" standalone="no"?>
<svg width="44px" height="51px" viewBox="0 0 44 51" version="1.1" xmlns="http://www.w3.org/2000/svg" xmlns:xlink="http://www.w3.org/1999/xlink">
    <!-- Generator: Sketch 3.7 (28169) - http://www.bohemiancoding.com/sketch -->
    <title>Shape</title>
    <desc>Created with Sketch.</desc>
    <defs></defs>
    <g id="Welcome" stroke="none" stroke-width="1" fill="none" fill-rule="evenodd">
        <g id="IT-BOOK---QUIÉNES-SOMOS---MENÚ" transform="translate(-802.000000, -166.000000)" fill="#000000">
            <g id="MENÚ-SUPERIOR-2" transform="translate(-6.000000, 136.000000)">
                <g id="4" transform="translate(808.000000, 30.000000)">
                    <g id="Capa_1">
                        <path d="M21.9627751,50.3411923 C21.7253118,50.3388829 21.4890317,50.3067797 21.2592703,50.2456078 C15.7897585,48.5353267 11.0049168,45.0781156 7.61127874,40.3844692 L7.61127874,40.3844692 C5.90579762,38.2359759 4.45733283,35.8882614 3.29644978,33.3908668 C-0.518109153,24.9634963 0.654398716,14.4173351 1.23283593,9.33542364 C1.39258576,7.9382866 2.49894809,6.85090947 3.874887,6.73871024 C9.21687854,6.35781008 14.3612976,4.52604581 18.7735536,1.43376814 L18.8829877,1.43376814 C19.4576679,1.04053052 20.0525894,0.678916205 20.6651997,0.350476656 C21.4779944,-0.059420036 22.4319223,-0.059420036 23.244717,0.350476656 C23.8890665,0.699557124 24.5152426,1.08240802 25.1207296,1.49749116 C29.5381749,4.59104731 34.6879524,6.42279745 40.0350297,6.80243327 C41.2091876,6.88997912 42.2124778,7.69777838 42.5676467,8.84157017 L42.5676467,8.84157017 C42.6247572,9.01805658 42.6666059,9.19929614 42.6927142,9.38321591 C43.255518,14.4651274 44.4280258,25.0272194 40.6134669,33.4386591 C37.5805799,40.1295771 30.6706002,48.2542632 22.6506463,50.2934001 C22.4240273,50.3370728 22.1931141,50.3531163 21.9627751,50.3411923 L21.9627751,50.3411923 Z M8.95575443,40.1773693 C12.1402387,44.4173157 16.5459523,47.5365728 21.5563057,49.0985933 C21.8282092,49.1687231 22.1129743,49.1687231 22.3848779,49.0985933 C30.0296292,47.1550409 36.6425736,39.3330392 39.58166,32.8970133 C43.1460839,25.0112886 42.1768107,15.0545654 41.6140069,9.94079241 L9.3934907,29.8542387 C9.11274745,30.0248794 8.74946375,29.9323312 8.58055191,29.6471389 C8.52820448,29.5552658 8.50119655,29.4506839 8.50238472,29.3444545 C8.50405866,29.1365603 8.61030537,28.944085 8.78378661,28.8346703 L41.3013382,8.73005487 C41.0115317,8.26819276 40.524713,7.97290878 39.9881294,7.93351702 C34.4517146,7.54478908 29.1184243,5.65253854 24.5422924,2.45333659 C23.9715841,2.06235757 23.3819833,1.70080584 22.7757138,1.37004511 C22.2841125,1.11729746 21.7039714,1.11729746 21.21237,1.37004511 C20.6378164,1.68013397 20.0794704,2.02044934 19.5395921,2.38961356 L19.4301581,2.38961356 C14.8547202,5.59021399 9.52104414,7.4826014 3.98432106,7.86979399 C3.15288235,7.94387792 2.49367852,8.61561857 2.42097724,9.4628697 C1.85817346,14.4332659 0.716932469,24.7563965 4.39079046,32.8810826 C5.43362812,35.1457247 6.72371893,37.2833279 8.23661627,39.2533854 L36.5956733,21.6021066 C36.7740414,21.4446194 37.0269784,21.4096606 37.2400686,21.5130438 C37.4531587,21.616427 37.5859847,21.8385433 37.5784629,22.0789187 C37.5709411,22.319294 37.4244981,22.5323359 37.2053773,22.621675 L8.95575443,40.1773693 Z" id="Shape"></path>
                    </g>
                </g>
            </g>
        </g>
    </g>
</svg>