<?xml version="1.0" encoding="UTF-8" standalone="no"?>
<svg width="44px" height="39px" viewBox="0 0 44 39" version="1.1" xmlns="http://www.w3.org/2000/svg" xmlns:xlink="http://www.w3.org/1999/xlink">
    <!-- Generator: Sketch 3.7 (28169) - http://www.bohemiancoding.com/sketch -->
    <title>1</title>
    <desc>Created with Sketch.</desc>
    <defs></defs>
    <g id="Welcome" stroke="none" stroke-width="1" fill="none" fill-rule="evenodd">
        <g id="IT-BOOK---QUIÉNES-SOMOS---MENÚ" transform="translate(-183.000000, -172.000000)" fill="#313131">
            <g id="MENÚ-SUPERIOR-2" transform="translate(-6.000000, 136.000000)">
                <g id="1" transform="translate(189.515555, 36.000000)">
                    <g id="Capa_1">
                        <path d="M38.8334606,8.10875535 L30.5164715,8.10875535 L30.5164715,4.49247349 C30.4821547,1.9823466 28.4617887,-0.0265761306 25.9984078,-2.98413258e-13 L17.3531165,-2.98413258e-13 C14.8897356,-0.0265761306 12.8693696,1.9823466 12.8350528,4.49247349 L12.8350528,8.10875535 L4.51806365,8.10875535 C2.022806,8.10875535 0,10.1700313 0,12.7127441 L0,33.4227283 C0,35.9654411 2.022806,38.0267171 4.51806365,38.0267171 L38.8334606,38.0267171 C41.3251568,38.0179767 43.3429469,35.9618119 43.3515243,33.4227283 L43.3515243,12.7127441 C43.3429469,10.1736606 41.3251568,8.11749582 38.8334606,8.10875535 L38.8334606,8.10875535 Z M14.0075607,4.49247349 C14.0418001,2.64220824 15.5372485,1.16816608 17.3531165,1.19480678 L25.9984078,1.19480678 C27.8142758,1.16816608 29.3097242,2.64220824 29.3439636,4.49247349 L29.3439636,8.10875535 L14.0075607,8.10875535 L14.0075607,4.49247349 L14.0075607,4.49247349 Z M42.1477495,33.3749361 C42.1477495,35.2577753 40.6498932,36.7841181 38.8021937,36.7841181 L4.53369709,36.7841181 C2.68599765,36.7841181 1.18814131,35.2577753 1.18814131,33.3749361 L1.18814131,12.6649519 C1.18814131,10.7821126 2.68599765,9.25576986 4.53369709,9.25576986 L38.8490941,9.25576986 C40.6967935,9.25576986 42.1946498,10.7821126 42.1946498,12.6649519 L42.1946498,33.3749361 L42.1477495,33.3749361 Z M34.1590626,18.6389858 L9.14556138,18.6389858 C8.85836797,18.5910363 8.64754418,18.3381397 8.64754418,18.0415824 C8.64754418,17.745025 8.85836797,17.4921284 9.14556138,17.444179 L34.1590626,17.444179 C34.446256,17.4921284 34.6570798,17.745025 34.6570798,18.0415824 C34.6570798,18.3381397 34.446256,18.5910363 34.1590626,18.6389858 L34.1590626,18.6389858 Z M34.1590626,28.4523321 L9.14556138,28.4523321 C8.85836797,28.4043827 8.64754418,28.1514861 8.64754418,27.8549287 C8.64754418,27.5583714 8.85836797,27.3054748 9.14556138,27.2575253 L34.1590626,27.2575253 C34.446256,27.3054748 34.6570798,27.5583714 34.6570798,27.8549287 C34.6570798,28.1514861 34.446256,28.4043827 34.1590626,28.4523321 L34.1590626,28.4523321 Z" id="Shape"></path>
                    </g>
                </g>
            </g>
        </g>
    </g>
</svg>