<?xml version="1.0" encoding="UTF-8" standalone="no"?>
<svg width="24px" height="32px" viewBox="0 0 24 32" version="1.1" xmlns="http://www.w3.org/2000/svg" xmlns:xlink="http://www.w3.org/1999/xlink">
    <!-- Generator: Sketch 3.7 (28169) - http://www.bohemiancoding.com/sketch -->
    <title>Group</title>
    <desc>Created with Sketch.</desc>
    <defs></defs>
    <g id="Welcome" stroke="none" stroke-width="1" fill="none" fill-rule="evenodd">
        <g id="PROCESOS---DESPLEGADO-PROCESO" transform="translate(-841.000000, -429.000000)">
            <g id="RECUADRO-DIAGRAMA" transform="translate(855.000000, 704.000000) rotate(-270.000000) translate(-855.000000, -704.000000) translate(575.000000, 159.000000)">
                <g id="BARRA-DESPLEGABLE" transform="translate(0.000000, 1.000000)">
                    <g id="Group" transform="translate(0.000000, 533.000000)">
                        <g id="ICONO-FLECHITA" transform="translate(0.000000, -0.000000)">
                            <g id="Layer_1">
                                <rect id="Rectangle-path" x="0" y="0" width="19.7965116" height="26.0986328"></rect>
                                <polygon id="Shape" fill="#FFFFFF" points="13.8575581 24.663208 14.6834686 23.574373 6.6999314 13.0493164 14.6834686 2.52425977 13.8575581 1.4354248 5.04811047 13.0493164"></polygon>
                                <rect id="Rectangle-path" x="0" y="0" width="19.7965116" height="26.0986328"></rect>
                            </g>
                        </g>
                        <g id="ICONO-FLECHITA-Copy-4" transform="translate(11.000000, -0.000000)">
                            <g id="Layer_1">
                                <rect id="Rectangle-path" x="0" y="0" width="19.7965116" height="26.0986328"></rect>
                                <polygon id="Shape" fill="#FFFFFF" points="13.8575581 24.663208 14.6834686 23.574373 6.6999314 13.0493164 14.6834686 2.52425977 13.8575581 1.4354248 5.04811047 13.0493164"></polygon>
                                <rect id="Rectangle-path" x="0" y="0" width="19.7965116" height="26.0986328"></rect>
                            </g>
                        </g>
                        <g id="ICONO-FLECHITA-Copy-5" transform="translate(22.000000, -0.000000)">
                            <g id="Layer_1">
                                <rect id="Rectangle-path" x="0" y="0" width="19.7965116" height="26.0986328"></rect>
                                <polygon id="Shape" fill="#FFFFFF" points="13.8575581 24.663208 14.6834686 23.574373 6.6999314 13.0493164 14.6834686 2.52425977 13.8575581 1.4354248 5.04811047 13.0493164"></polygon>
                                <rect id="Rectangle-path" x="0" y="0" width="19.7965116" height="26.0986328"></rect>
                            </g>
                        </g>
                    </g>
                </g>
            </g>
        </g>
    </g>
</svg>